<svg width="220" height="220" viewBox="0 0 220 220" fill="none" xmlns="http://www.w3.org/2000/svg">
  <rect width="220" height="220" rx="16" fill="#FFFFFF"/>
  <rect x="18" y="18" width="184" height="184" rx="12" fill="#F8FAFC" stroke="#E2E8F0"/>

  <!-- Finder patterns -->
  <rect x="34" y="34" width="52" height="52" rx="6" fill="#0F172A"/>
  <rect x="42" y="42" width="36" height="36" rx="4" fill="#F8FAFC"/>
  <rect x="50" y="50" width="20" height="20" rx="3" fill="#0F172A"/>

  <rect x="134" y="34" width="52" height="52" rx="6" fill="#0F172A"/>
  <rect x="142" y="42" width="36" height="36" rx="4" fill="#F8FAFC"/>
  <rect x="150" y="50" width="20" height="20" rx="3" fill="#0F172A"/>

  <rect x="34" y="134" width="52" height="52" rx="6" fill="#0F172A"/>
  <rect x="42" y="142" width="36" height="36" rx="4" fill="#F8FAFC"/>
  <rect x="50" y="150" width="20" height="20" rx="3" fill="#0F172A"/>

  <!-- Random modules (static placeholder) -->
  <g fill="#0F172A" opacity="0.95">
    <rect x="100" y="96" width="8" height="8" rx="1"/>
    <rect x="112" y="96" width="8" height="8" rx="1"/>
    <rect x="124" y="96" width="8" height="8" rx="1"/>
    <rect x="100" y="108" width="8" height="8" rx="1"/>
    <rect x="116" y="108" width="8" height="8" rx="1"/>
    <rect x="132" y="108" width="8" height="8" rx="1"/>

    <rect x="96" y="124" width="8" height="8" rx="1"/>
    <rect x="108" y="124" width="8" height="8" rx="1"/>
    <rect x="120" y="124" width="8" height="8" rx="1"/>
    <rect x="136" y="124" width="8" height="8" rx="1"/>

    <rect x="96" y="140" width="8" height="8" rx="1"/>
    <rect x="112" y="140" width="8" height="8" rx="1"/>
    <rect x="128" y="140" width="8" height="8" rx="1"/>
    <rect x="144" y="140" width="8" height="8" rx="1"/>

    <rect x="92" y="156" width="8" height="8" rx="1"/>
    <rect x="104" y="156" width="8" height="8" rx="1"/>
    <rect x="120" y="156" width="8" height="8" rx="1"/>
    <rect x="136" y="156" width="8" height="8" rx="1"/>
    <rect x="152" y="156" width="8" height="8" rx="1"/>

    <rect x="96" y="172" width="8" height="8" rx="1"/>
    <rect x="112" y="172" width="8" height="8" rx="1"/>
    <rect x="128" y="172" width="8" height="8" rx="1"/>
  </g>

  <text x="110" y="210" text-anchor="middle" font-family="system-ui, -apple-system, Segoe UI, Roboto" font-size="10" fill="#64748B">Placeholder QR</text>
</svg>
